:FULLY-SPECIFIED
:FORCE-ALL-JOINTS-BE-3DOF
:DEGREES
442
root 1.48949 15.2316 -9.1147 5.49212 4.83139 -13.5423
lfemur -46.8501 16.8114 3.9745
ltibia 62.9553 0 0
lfoot -24.9916 -10.2701 0
ltoes -12.7255 0 0
rfemur -14.9411 -3.44768 8.90199
rtibia 38.8284 0 0
rfoot -14.6389 -13.9723 0
rtoes -49.791 0 0
lowerback 6.02945 1.6015 4.3986
upperback 1.01281 2.43843 0.924751
thorax -2.1908 1.18676 -1.7001
lowerneck -7.15866 0.0337935 5.62298
upperneck 0.687406 -0.434285 0.0690367
head 1.41974 -0.189785 -0.949097
lclavicle 2.90226e-14 6.36111e-15 0
lhumerus -39.6318 -28.4329 97.6213
lradius 54.1431 0 0
lwrist 7.92235 0 0
lhand -20.0855 -1.30814 0
lfingers 7.12502 0 0
lthumb 6.25724 28.5794 0
rclavicle 2.90226e-14 6.36111e-15 0
rhumerus -48.3514 -2.52445 -89.7222
rradius 66.3347 0 0
rwrist 12.906 0 0
rhand -30.9208 -29.1118 0
rfingers 7.12502 0 0
rthumb -4.20662 -779.05 0
443
root 1.48422 15.2492 -9.05778 5.53449 6.6705 -13.7206
lfemur -47.9915 17.7645 2.79443
ltibia 63.1024 -0 0
lfoot -24.1612 -9.56224 0.0308126
ltoes -11.189 0 0
rfemur -14.1024 -4.17585 9.29813
rtibia 38.4348 -0 0
rfoot -14.1894 -14.421 -0.0105648
rtoes -49.9384 0 0
lowerback 5.8212 1.53411 4.65062
upperback 0.965354 2.35728 1.01821
thorax -2.12329 1.14615 -1.73366
lowerneck -7.15282 -0.148016 5.45153
upperneck 0.591599 -0.659609 0.0747554
head 1.38221 -0.304443 -0.923715
lclavicle -0 0 0
lhumerus -39.7806 -27.9888 97.9522
lradius 54.1182 -0 0
lwrist 7.51911 0 0
lhand -21.0792 -2.07258 0.0398328
lfingers 0 -0 0
lthumb 5.29757 27.828 0.037807
rclavicle -0 0 0
rhumerus -48.3447 -2.42709 -89.421
rradius 66.2452 -0 0
rwrist 12.7579 0 0
rhand -30.3041 -28.4377 0.0217841
rfingers 0 -0 0
rthumb -3.61104 -58.3818 0.0208543
444
root 1.47896 15.2669 -9.00086 5.57125 8.50973 -13.8983
lfemur -49.1596 18.6946 1.58815
ltibia 63.2494 -0 0
lfoot -23.3304 -8.854 0.0513606
ltoes -9.6526 0 0
rfemur -13.268 -4.90972 9.68393
rtibia 38.0412 -0 0
rfoot -13.7397 -14.8697 -0.0176088
rtoes -50.0858 0 0
lowerback 5.61267 1.46764 4.90287
upperback 0.917768 2.2762 1.11173
thorax -2.05576 1.10557 -1.76726
lowerneck -7.14644 -0.329807 5.28007
upperneck 0.495765 -0.884922 0.0808512
head 1.34463 -0.419084 -0.898257
lclavicle -0 0 0
lhumerus -39.926 -27.5439 98.2804
lradius 54.0932 -0 0
lwrist 7.11588 0 0
lhand -22.0734 -2.8376 0.0663987
lfingers 0 -0 0
lthumb 4.33749 27.0761 0.0630213
rclavicle -0 0 0
rhumerus -48.3376 -2.32976 -89.1197
rradius 66.1558 -0 0
rwrist 12.6098 0 0
rhand -29.6872 -27.7633 0.03631
rfingers 0 -0 0
rthumb -3.01526 -57.7133 0.0347599
445
root 1.47369 15.2845 -8.94394 5.60241 10.3491 -14.0758
lfemur -50.3547 19.601 0.355273
ltibia 63.3965 -0 0
lfoot -22.4995 -8.14555 0.0616364
ltoes -8.11615 0 0
rfemur -12.4375 -5.6491 10.0594
rtibia 37.6476 -0 0
rfoot -13.2901 -15.3185 -0.021131
rtoes -50.2332 0 0
lowerback 5.40385 1.40208 5.15535
upperback 0.870052 2.1952 1.20531
thorax -1.98821 1.06504 -1.80091
lowerneck -7.13952 -0.511578 5.10858
upperneck 0.399901 -1.11023 0.0873244
head 1.307 -0.533708 -0.872724
lclavicle -0 0 0
lhumerus -40.0679 -27.0983 98.6061
lradius 54.0683 -0 0
lwrist 6.71264 0 0
lhand -23.0679 -3.60296 0.0796848
lfingers 0 -0 0
lthumb 3.37717 26.3239 0.0756312
rclavicle -0 0 0
rhumerus -48.3299 -2.23247 -88.8185
rradius 66.0663 -0 0
rwrist 12.4617 0 0
rhand -29.0702 -27.0889 0.0435738
rfingers 0 -0 0
rthumb -2.41935 -57.0448 0.0417136
